#VRML V2.0 utf8
# 3D model generated by easyeda2kicad.py (https://github.com/uPesy/easyeda2kicad.py)

Shape{
    appearance Appearance {
        material  Material 	{
            diffuseColor 0.8431372549019608 0.8156862745098039 0.7529411764705882
            specularColor 0.4235294117647059 0.40784313725490196 0.3764705882352941
            ambientIntensity 0.2
            transparency 0
            shininess 0.5
        }
    }
    geometry IndexedFaceSet {
        ccw TRUE
        solid FALSE
        coord DEF co Coordinate {
            point [
                2.2626 -0.2838 0.0, 2.2638 -0.3813 0.0, 2.2638 -0.4821 0.0, 2.274 -0.2181 0.0, 2.2626 -0.1989 0.0, 2.2956 -0.2181 0.0, 2.7362 -0.1989 0.0, 2.2808 -0.3317 0.0, 2.2965 -0.3464 0.0, 2.4088 -0.3541 0.0, 2.4272 -0.3426 0.0, 2.4606 -0.4557 0.0, 2.4414 -0.2642 0.0, 2.2936 -0.2216 0.0, 2.4383 -0.2402 0.0, 2.4288 -0.2181 0.0, 2.4552 -0.2181 0.0, 2.2854 -0.3813 0.0, 2.4393 -0.2836 0.0, 2.434 -0.2982 0.0, 2.4246 -0.3122 0.0, 2.4114 -0.324 0.0, 2.3962 -0.332 0.0, 2.3749 -0.3372 0.0, 2.3601 -0.3381 0.0, 2.3388 -0.3361 0.0, 2.3219 -0.3308 0.0, 2.283 -0.2686 0.0, 2.2985 -0.3134 0.0, 2.285 -0.2869 0.0, 2.2903 -0.3013 0.0, 2.3082 -0.3226 0.0, 2.2859 -0.2425 0.0, 2.2639 -0.2965 0.0, 2.2705 -0.3157 0.0, 2.4438 -0.3255 0.0, 2.4546 -0.3071 0.0, 2.4612 -0.2855 0.0, 2.3153 -0.3568 0.0, 2.3361 -0.3627 0.0, 2.2854 -0.4557 0.0, 2.3585 -0.3645 0.0, 2.3864 -0.3617 0.0, 2.463 -0.2644 0.0, 2.4614 -0.2408 0.0, 2.2654 -0.2391 0.0, 2.2626 -0.2589 0.0, 2.1457 -0.1989 0.0, 2.2615 -0.2669 0.0, 2.2614 -0.2722 0.0, 2.4606 -0.4821 0.0, 2.7362 -0.9843 0.0, 2.2626 -0.9843 0.0, 2.1457 -0.9843 0.0, 2.3383 0.1201 0.0, 2.3177 0.113 0.0, 2.2638 0.1372 0.0, 2.3001 0.1017 0.0, 2.439 -0.1533 0.0, 2.3742 -0.1533 0.0, 2.439 -0.0788 0.0, 2.3742 -0.0836 0.0, 2.3526 -0.0836 0.0, 2.3526 -0.1533 0.0, 2.2854 -0.1533 0.0, 2.2846 0.0855 0.0, 2.2727 0.0649 0.0, 2.2659 0.0423 0.0, 2.414 0.1105 0.0, 2.3948 0.1188 0.0, 2.4606 0.2116 0.0, 2.3743 0.1224 0.0, 2.3647 0.1228 0.0, 2.7362 0.9843 0.0, 2.4606 0.0199 0.0, 2.4576 0.0484 0.0, 2.4495 0.0714 0.0, 2.2854 -0.074 0.0, 2.2638 -0.0356 0.0, 2.4606 -0.0356 0.0, 2.4606 -0.0788 0.0, 2.4368 0.0909 0.0, 2.4297 0.0986 0.0, 2.2638 -0.074 0.0, 2.2638 0.0179 0.0, 2.2638 -0.1797 0.0, 2.4606 -0.1797 0.0, 2.2638 0.3149 0.0, 2.2638 0.2861 0.0, 2.319 0.2661 0.0, 2.319 0.1848 0.0, 2.2638 0.166 0.0, 2.1457 0.9843 0.0, 2.2626 0.9843 0.0, 2.4606 0.238 0.0, 1.8504 0.2953 0.1969, 1.5551 -0.0 0.1969, 2.0472 0.2953 0.1969, 2.5394 -0.0 0.1969, 2.0472 0.4921 0.1969, 2.5394 0.7874 0.1969, 1.8504 0.4921 0.1969, 1.5551 0.7874 0.1969, 1.063 0.2953 0.1969, 0.7677 -0.0 0.1969, 1.2598 0.2953 0.1969, 1.2598 0.4921 0.1969, 1.063 0.4921 0.1969, 0.7677 0.7874 0.1969, 0.2756 0.2953 0.1969, -0.0197 -0.0 0.1969, 0.4724 0.2953 0.1969, 0.4724 0.4921 0.1969, 0.2756 0.4921 0.1969, -0.0197 0.7874 0.1969, -0.5118 0.2953 0.1969, -0.8071 -0.0 0.1969, -0.315 0.2953 0.1969, -0.315 0.4921 0.1969, -0.5118 0.4921 0.1969, -0.8071 0.7874 0.1969, -1.2992 0.2953 0.1969, -1.5945 -0.0 0.1969, -1.1024 0.2953 0.1969, -1.1024 0.4921 0.1969, -1.2992 0.4921 0.1969, -1.5945 0.7874 0.1969, -2.0866 0.2953 0.1969, -2.0866 0.4921 0.1969, -2.313 0.7874 0.1969, -1.8898 0.4921 0.1969, -1.8898 0.2953 0.1969, -2.313 -0.0 0.1969, -2.5394 0.7874 0.1969, -2.5394 -0.0 0.1969, 2.0472 -0.2953 0.1969, 2.0472 -0.4921 0.1969, 2.5394 -0.6398 0.1969, 1.5551 -0.6398 0.1969, 1.8504 -0.2953 0.1969, 1.8504 -0.4921 0.1969, 1.2598 -0.2953 0.1969, 1.2598 -0.4921 0.1969, 0.7677 -0.6398 0.1969, 1.063 -0.2953 0.1969, 1.063 -0.4921 0.1969, 0.4724 -0.2953 0.1969, 0.4724 -0.4921 0.1969, -0.0197 -0.6398 0.1969, 0.2756 -0.2953 0.1969, 0.2756 -0.4921 0.1969, -0.315 -0.2953 0.1969, -0.315 -0.4921 0.1969, -0.8071 -0.6398 0.1969, -0.5118 -0.2953 0.1969, -0.5118 -0.4921 0.1969, -1.1024 -0.2953 0.1969, -1.1024 -0.4921 0.1969, -1.5945 -0.6398 0.1969, -1.2992 -0.2953 0.1969, -1.2992 -0.4921 0.1969, -1.8898 -0.2953 0.1969, -1.8898 -0.4921 0.1969, -2.313 -0.6398 0.1969, -2.0866 -0.2953 0.1969, -2.0866 -0.4921 0.1969, -2.5394 -0.6398 0.1969, -2.5394 -0.7874 0.1969, -2.313 -0.7874 0.1969, -1.5945 -0.7874 0.1969, -0.8071 -0.7874 0.1969, -0.0197 -0.7874 0.1969, 0.7677 -0.7874 0.1969, 1.5551 -0.7874 0.1969, 2.5394 -0.7874 0.1969, -2.0866 -0.2953 0.0433, -2.0866 -0.4921 0.0433, -2.185 -0.9843 0.0433, -1.8898 -0.2953 0.0433, -1.7913 0.9843 0.0433, -1.7913 -0.9843 0.0433, -1.8898 -0.4921 0.0433, -2.185 0.9843 0.0433, -2.0866 0.2953 0.0433, -1.8898 0.2953 0.0433, -1.8898 0.4921 0.0433, -2.0866 0.4921 0.0433, -1.2992 -0.2953 0.0433, -1.2992 -0.4921 0.0433, -1.3976 -0.9843 0.0433, -1.1024 -0.2953 0.0433, -1.0039 0.9843 0.0433, -1.0039 -0.9843 0.0433, -1.1024 -0.4921 0.0433, -1.3976 0.9843 0.0433, -1.2992 0.2953 0.0433, -1.1024 0.2953 0.0433, -1.1024 0.4921 0.0433, -1.2992 0.4921 0.0433, -0.5118 -0.2953 0.0433, -0.5118 -0.4921 0.0433, -0.6102 -0.9843 0.0433, -0.315 -0.2953 0.0433, -0.2165 0.9843 0.0433, -0.2165 -0.9843 0.0433, -0.315 -0.4921 0.0433, -0.6102 0.9843 0.0433, -0.5118 0.2953 0.0433, -0.315 0.2953 0.0433, -0.315 0.4921 0.0433, -0.5118 0.4921 0.0433, 0.2756 -0.2953 0.0433, 0.2756 -0.4921 0.0433, 0.1772 -0.9843 0.0433, 0.4724 0.2953 0.0433, 0.4724 0.4921 0.0433, 0.5709 0.9843 0.0433, 0.5709 -0.9843 0.0433, 0.4724 -0.4921 0.0433, 0.4724 -0.2953 0.0433, 0.1772 0.9843 0.0433, 0.2756 0.4921 0.0433, 0.2756 0.2953 0.0433, 1.063 -0.2953 0.0433, 1.063 -0.4921 0.0433, 0.9646 -0.9843 0.0433, 1.2598 -0.2953 0.0433, 1.3583 0.9843 0.0433, 1.3583 -0.9843 0.0433, 1.2598 -0.4921 0.0433, 0.9646 0.9843 0.0433, 1.063 0.2953 0.0433, 1.2598 0.2953 0.0433, 1.2598 0.4921 0.0433, 1.063 0.4921 0.0433, -2.185 -0.9843 0.0, -2.7362 -0.9843 0.0, -2.185 0.9843 0.0, -2.7362 0.9843 0.0, -1.7913 0.9843 0.0, -1.3976 0.9843 0.0, -1.7913 -0.9843 0.0, -1.3976 -0.9843 0.0, -1.0039 0.9843 0.0, -0.6102 0.9843 0.0, -1.0039 -0.9843 0.0, -0.6102 -0.9843 0.0, -0.2165 0.9843 0.0, 0.1772 0.9843 0.0, -0.2165 -0.9843 0.0, 0.1772 -0.9843 0.0, 0.5709 0.9843 0.0, 0.9646 0.9843 0.0, 0.5709 -0.9843 0.0, 0.9646 -0.9843 0.0, 1.8504 -0.2953 0.0433, 1.8504 -0.4921 0.0433, 1.752 -0.9843 0.0433, 2.0472 -0.2953 0.0433, 2.1457 0.9843 0.0433, 2.1457 -0.9843 0.0433, 2.0472 -0.4921 0.0433, 1.752 0.9843 0.0433, 1.8504 0.2953 0.0433, 2.0472 0.2953 0.0433, 2.0472 0.4921 0.0433, 1.8504 0.4921 0.0433, 1.3583 0.9843 0.0, 1.752 0.9843 0.0, 1.3583 -0.9843 0.0, 1.752 -0.9843 0.0, -2.3973 0.7874 2.5591, -2.3973 0.9843 2.5591, -2.5394 0.7874 2.5591, -2.7362 0.9843 2.5591, -2.5394 0.4331 2.5591, -2.7362 0.4331 2.5591, -2.5394 -0.0591 2.5591, -2.7362 -0.0591 2.5591, -2.5394 -0.7874 2.5591, -2.7362 -0.9843 2.5591, -2.3543 -0.7874 2.5591, -2.3543 -0.9843 2.5591, -2.5394 0.3346 2.4606, -2.7362 0.3346 2.4606, -2.5394 0.3346 1.6535, -2.7362 0.3346 1.6535, -2.7362 0.0394 1.6535, -2.5394 0.0394 1.6535, -2.7362 0.0394 2.4606, -2.5394 0.0394 2.4606, -2.7362 -0.8465 0.3622, -2.7362 -0.8465 0.1654, -2.7362 -0.9843 0.1654, -2.7362 -0.9843 0.3622, 2.7362 0.0394 1.6535, 2.7362 0.0394 2.4606, 2.7362 -0.0591 2.5591, 2.7362 -0.9843 2.5591, 2.7362 -0.9843 0.3622, 2.7362 0.3346 1.6535, 2.7362 -0.8465 0.3622, 2.7362 -0.8465 0.1654, 2.7362 0.4331 2.5591, 2.7362 0.3346 2.4606, 2.7362 0.9843 2.5591, 2.7362 -0.9843 0.1654, 2.3543 -0.9843 2.5591, 2.2559 -0.9843 2.4606, -1.2126 -0.9843 2.1181, -1.311 -0.9843 2.0197, 1.2126 -0.9843 2.1181, -1.311 -0.9843 0.6063, 1.311 -0.9843 2.0197, 1.311 -0.9843 0.6063, 2.2559 -0.9843 2.2165, 2.3898 -0.9843 1.378, 2.3898 -0.9843 0.8465, 2.1575 -0.9843 2.1181, 1.8228 -0.9843 2.1181, 2.1378 -0.9843 1.378, 1.7244 -0.9843 2.0197, 2.1378 -0.9843 0.8465, 1.7244 -0.9843 0.6063, -1.7244 -0.9843 0.6063, -1.7244 -0.9843 2.0197, -2.1378 -0.9843 1.378, -1.8228 -0.9843 2.1181, -2.3898 -0.9843 1.378, -2.1575 -0.9843 2.1181, -2.2559 -0.9843 2.2165, -2.2559 -0.9843 2.4606, -2.3898 -0.9843 0.8465, -2.1378 -0.9843 0.8465, 2.3543 -0.7874 2.5591, 2.5394 -0.7874 2.5591, 2.5394 -0.0591 2.5591, 2.3346 0.9843 2.1839, 2.3346 0.9843 2.4964, 2.3973 0.9843 2.5591, -2.1901 0.9843 2.0394, -2.3346 0.9843 2.1839, -2.3346 0.9843 2.4964, 1.5486 0.9843 1.5065, 1.5799 0.9843 1.5472, -1.8555 0.9843 2.0394, -1.6063 0.9843 1.7902, 1.1813 0.9843 1.4555, 1.2323 0.9843 1.4488, 2.1901 0.9843 2.0394, 1.1339 0.9843 1.4752, 1.0354 0.9843 1.8425, 1.0354 0.9843 1.6457, 1.0421 0.9843 1.5947, 1.0618 0.9843 1.5472, -1.0618 0.9843 1.5472, -1.0421 0.9843 1.5947, -1.0354 0.9843 1.6457, -1.0354 0.9843 1.8425, 1.4094 0.9843 1.4488, 1.4604 0.9843 1.4555, 1.5079 0.9843 1.4752, 1.0931 0.9843 1.5065, -1.6063 0.9843 1.6457, -1.5996 0.9843 1.5947, -1.5799 0.9843 1.5472, 1.6063 0.9843 1.7902, 1.8555 0.9843 2.0394, 1.6063 0.9843 1.6457, 1.5996 0.9843 1.5947, -1.5486 0.9843 1.5065, -1.5079 0.9843 1.4752, -1.4604 0.9843 1.4555, -1.4094 0.9843 1.4488, -1.2323 0.9843 1.4488, -1.1813 0.9843 1.4555, -1.1339 0.9843 1.4752, -1.0931 0.9843 1.5065, 2.5394 0.4331 2.5591, 2.5394 0.7874 2.5591, 2.3973 0.7874 2.5591, 2.5394 0.3346 1.6535, 2.5394 0.3346 2.4606, 2.5394 0.0394 1.6535, 2.5394 0.0394 2.4606, -2.1378 -0.7874 0.8465, -2.1378 -0.7874 1.378, -1.7244 -0.7874 0.6063, -2.2559 -0.7874 2.4606, -1.311 -0.7874 0.6063, -2.2559 -0.7874 2.2165, -2.3898 -0.7874 1.378, -2.3898 -0.7874 0.8465, -2.1575 -0.7874 2.1181, -1.8228 -0.7874 2.1181, -1.7244 -0.7874 2.0197, 1.7244 -0.7874 0.6063, 1.311 -0.7874 0.6063, 1.311 -0.7874 2.0197, -1.311 -0.7874 2.0197, 1.2126 -0.7874 2.1181, -1.2126 -0.7874 2.1181, 2.2559 -0.7874 2.4606, 2.2559 -0.7874 2.2165, 2.3898 -0.7874 1.378, 2.3898 -0.7874 0.8465, 2.1378 -0.7874 0.8465, 2.1378 -0.7874 1.378, 1.7244 -0.7874 2.0197, 1.8228 -0.7874 2.1181, 2.1575 -0.7874 2.1181, -2.1901 0.7874 2.0394, -2.3346 0.7874 2.1839, -2.3346 0.7874 2.4964, 1.5996 0.7874 1.5947, 1.5799 0.7874 1.5472, 1.6063 0.7874 1.6457, 2.1901 0.7874 2.0394, 1.8555 0.7874 2.0394, 1.6063 0.7874 1.7902, 2.3346 0.7874 2.1839, 2.3346 0.7874 2.4964, -1.4094 0.7874 1.4488, -1.4604 0.7874 1.4555, -1.5079 0.7874 1.4752, -1.5486 0.7874 1.5065, -1.6063 0.7874 1.7902, -1.8555 0.7874 2.0394, -1.6063 0.7874 1.6457, -1.5996 0.7874 1.5947, -1.5799 0.7874 1.5472, 1.5486 0.7874 1.5065, 1.5079 0.7874 1.4752, 1.4604 0.7874 1.4555, -1.0618 0.7874 1.5472, 1.1339 0.7874 1.4752, 1.0931 0.7874 1.5065, 1.0354 0.7874 1.6457, 1.0354 0.7874 1.8425, -1.0354 0.7874 1.8425, -1.0931 0.7874 1.5065, -1.1339 0.7874 1.4752, -1.1813 0.7874 1.4555, -1.2323 0.7874 1.4488, 1.1813 0.7874 1.4555, 1.0618 0.7874 1.5472, 1.0421 0.7874 1.5947, -1.0421 0.7874 1.5947, -1.0354 0.7874 1.6457, 1.4094 0.7874 1.4488, 1.2323 0.7874 1.4488, 1.2323 0.7874 1.4488
            ]
        }
        coordIndex [
            0,1,2,-1,3,4,5,-1,5,4,6,-1,7,8,1,-1,9,10,11,-1,12,13,14,-1,14,13,5,-1,14,5,15,-1,15,5,6,-1,15,6,16,-1,1,8,17,-1,12,18,13,-1,13,18,19,-1,13,19,20,-1,20,21,13,-1,13,21,22,-1,13,22,23,-1,23,24,13,-1,13,24,25,-1,13,25,26,-1,27,28,29,-1,29,28,30,-1,26,31,13,-1,13,31,28,-1,13,28,32,-1,32,28,27,-1,0,33,1,-1,1,33,34,-1,1,34,7,-1,35,36,6,-1,6,36,37,-1,8,38,17,-1,17,38,39,-1,17,39,40,-1,40,39,41,-1,40,41,11,-1,11,41,42,-1,11,42,9,-1,37,43,6,-1,6,43,44,-1,6,44,16,-1,3,45,4,-1,4,45,46,-1,4,46,47,-1,46,48,47,-1,47,48,49,-1,47,49,0,-1,10,35,11,-1,11,35,6,-1,11,6,50,-1,50,6,51,-1,50,51,2,-1,2,51,52,-1,2,52,0,-1,0,52,53,-1,0,53,47,-1,54,55,56,-1,56,55,57,-1,58,59,60,-1,60,59,61,-1,62,63,64,-1,57,65,56,-1,56,65,66,-1,56,66,67,-1,68,69,70,-1,70,69,71,-1,70,71,56,-1,56,71,72,-1,56,72,54,-1,73,74,70,-1,70,74,75,-1,70,75,76,-1,64,77,62,-1,62,77,78,-1,62,78,61,-1,61,78,79,-1,61,79,60,-1,60,79,80,-1,76,81,70,-1,70,81,82,-1,70,82,68,-1,77,83,78,-1,78,83,4,-1,78,4,84,-1,83,85,4,-1,4,85,86,-1,4,86,6,-1,6,86,80,-1,6,80,73,-1,73,80,79,-1,73,79,74,-1,87,88,4,-1,89,90,88,-1,88,90,91,-1,88,91,4,-1,4,91,56,-1,4,56,84,-1,84,56,67,-1,47,92,4,-1,4,92,93,-1,4,93,87,-1,87,93,73,-1,87,73,94,-1,94,73,70,-1,95,96,97,-1,97,96,98,-1,97,98,99,-1,99,98,100,-1,99,100,101,-1,101,100,102,-1,101,102,95,-1,95,102,96,-1,103,104,105,-1,105,104,96,-1,105,96,106,-1,106,96,102,-1,106,102,107,-1,107,102,108,-1,107,108,103,-1,103,108,104,-1,109,110,111,-1,111,110,104,-1,111,104,112,-1,112,104,108,-1,112,108,113,-1,113,108,114,-1,113,114,109,-1,109,114,110,-1,115,116,117,-1,117,116,110,-1,117,110,118,-1,118,110,114,-1,118,114,119,-1,119,114,120,-1,119,120,115,-1,115,120,116,-1,121,122,123,-1,123,122,116,-1,123,116,124,-1,124,116,120,-1,124,120,125,-1,125,120,126,-1,125,126,121,-1,121,126,122,-1,127,128,129,-1,129,128,126,-1,126,128,130,-1,126,130,122,-1,122,130,131,-1,122,131,132,-1,133,134,129,-1,129,134,132,-1,129,132,127,-1,127,132,131,-1,135,136,137,-1,137,136,138,-1,137,98,135,-1,135,98,96,-1,135,96,139,-1,139,96,140,-1,141,142,138,-1,138,142,143,-1,136,140,138,-1,138,140,96,-1,138,96,141,-1,141,96,104,-1,141,104,144,-1,144,104,145,-1,146,147,143,-1,143,147,148,-1,142,145,143,-1,143,145,104,-1,143,104,146,-1,146,104,110,-1,146,110,149,-1,149,110,150,-1,151,152,148,-1,148,152,153,-1,147,150,148,-1,148,150,110,-1,148,110,151,-1,151,110,116,-1,151,116,154,-1,154,116,155,-1,156,157,153,-1,153,157,158,-1,152,155,153,-1,153,155,116,-1,153,116,156,-1,156,116,122,-1,156,122,159,-1,159,122,160,-1,161,162,158,-1,158,162,163,-1,157,160,158,-1,158,160,122,-1,158,122,161,-1,161,122,132,-1,161,132,164,-1,164,132,165,-1,134,166,132,-1,132,166,163,-1,132,163,165,-1,165,163,162,-1,166,167,163,-1,163,167,168,-1,163,168,158,-1,158,168,169,-1,158,169,153,-1,153,169,170,-1,153,170,148,-1,148,170,171,-1,148,171,143,-1,143,171,172,-1,143,172,138,-1,138,172,173,-1,138,173,137,-1,137,173,174,-1,175,176,177,-1,178,179,180,-1,177,176,180,-1,180,176,181,-1,180,181,178,-1,177,182,175,-1,175,182,183,-1,175,183,178,-1,178,183,184,-1,178,184,179,-1,179,184,185,-1,179,185,182,-1,182,185,186,-1,182,186,183,-1,187,188,189,-1,190,191,192,-1,189,188,192,-1,192,188,193,-1,192,193,190,-1,189,194,187,-1,187,194,195,-1,187,195,190,-1,190,195,196,-1,190,196,191,-1,191,196,197,-1,191,197,194,-1,194,197,198,-1,194,198,195,-1,199,200,201,-1,202,203,204,-1,201,200,204,-1,204,200,205,-1,204,205,202,-1,201,206,199,-1,199,206,207,-1,199,207,202,-1,202,207,208,-1,202,208,203,-1,203,208,209,-1,203,209,206,-1,206,209,210,-1,206,210,207,-1,211,212,213,-1,214,215,216,-1,213,212,217,-1,217,212,218,-1,217,218,219,-1,216,215,220,-1,220,215,221,-1,220,221,222,-1,216,217,214,-1,214,217,219,-1,214,219,222,-1,222,219,211,-1,222,211,220,-1,220,211,213,-1,223,224,225,-1,226,227,228,-1,225,224,228,-1,228,224,229,-1,228,229,226,-1,225,230,223,-1,223,230,231,-1,223,231,226,-1,226,231,232,-1,226,232,227,-1,227,232,233,-1,227,233,230,-1,230,233,234,-1,230,234,231,-1,235,236,237,-1,237,236,238,-1,239,240,241,-1,241,240,242,-1,243,244,245,-1,245,244,246,-1,247,248,249,-1,249,248,250,-1,251,252,253,-1,253,252,254,-1,255,256,257,-1,258,259,260,-1,257,256,260,-1,260,256,261,-1,260,261,258,-1,257,262,255,-1,255,262,263,-1,255,263,258,-1,258,263,264,-1,258,264,259,-1,259,264,265,-1,259,265,262,-1,262,265,266,-1,262,266,263,-1,267,268,269,-1,269,268,270,-1,271,272,273,-1,273,272,274,-1,273,274,275,-1,275,274,276,-1,277,278,279,-1,279,278,280,-1,279,280,281,-1,281,280,282,-1,283,284,285,-1,285,284,286,-1,286,287,285,-1,285,287,288,-1,287,289,288,-1,288,289,290,-1,289,278,290,-1,290,278,277,-1,275,276,283,-1,283,276,284,-1,287,286,291,-1,238,236,292,-1,292,236,293,-1,286,284,276,-1,292,291,238,-1,238,291,286,-1,238,286,274,-1,274,286,276,-1,278,289,280,-1,280,289,287,-1,280,287,294,-1,294,287,291,-1,295,296,297,-1,297,298,295,-1,295,298,299,-1,295,299,300,-1,300,299,301,-1,300,301,302,-1,303,304,305,-1,305,304,300,-1,305,300,73,-1,73,300,302,-1,73,302,51,-1,51,302,306,-1,298,307,308,-1,309,310,311,-1,311,310,312,-1,311,312,313,-1,313,312,314,-1,308,315,298,-1,298,315,316,-1,298,316,299,-1,299,316,317,-1,315,318,316,-1,316,318,319,-1,316,319,320,-1,320,319,321,-1,320,321,322,-1,322,321,323,-1,322,323,317,-1,317,323,299,-1,299,323,314,-1,299,314,294,-1,294,314,312,-1,294,312,324,-1,324,325,326,-1,326,325,327,-1,326,327,328,-1,328,327,329,-1,328,329,330,-1,331,282,330,-1,330,282,280,-1,330,280,328,-1,328,280,294,-1,328,294,332,-1,332,294,324,-1,332,324,333,-1,333,324,326,-1,334,307,335,-1,335,307,298,-1,335,298,336,-1,336,298,297,-1,52,51,306,-1,293,236,235,-1,235,177,293,-1,293,177,180,-1,293,180,306,-1,192,245,246,-1,201,204,306,-1,246,201,192,-1,192,201,306,-1,192,306,189,-1,189,306,180,-1,189,180,242,-1,242,180,241,-1,217,253,254,-1,225,228,306,-1,254,225,217,-1,217,225,306,-1,217,306,213,-1,213,306,204,-1,213,204,250,-1,250,204,249,-1,53,52,260,-1,260,52,306,-1,260,306,257,-1,257,306,228,-1,257,228,270,-1,270,228,269,-1,230,252,251,-1,206,244,243,-1,337,338,339,-1,92,259,93,-1,93,259,305,-1,93,305,73,-1,237,238,182,-1,182,238,274,-1,240,239,194,-1,194,239,179,-1,248,247,220,-1,220,247,203,-1,340,182,341,-1,341,182,274,-1,341,274,342,-1,342,274,272,-1,343,344,259,-1,340,345,346,-1,262,347,348,-1,339,305,337,-1,337,305,259,-1,337,259,349,-1,349,259,344,-1,216,220,347,-1,347,220,203,-1,347,203,350,-1,351,352,179,-1,179,352,353,-1,179,353,194,-1,194,353,354,-1,194,354,191,-1,355,356,351,-1,351,356,357,-1,351,357,358,-1,348,359,262,-1,262,359,360,-1,262,360,259,-1,259,360,361,-1,259,361,343,-1,268,267,262,-1,262,267,227,-1,262,227,347,-1,347,227,230,-1,347,230,216,-1,216,230,251,-1,243,191,206,-1,206,191,354,-1,206,354,203,-1,203,354,362,-1,203,362,350,-1,346,363,340,-1,340,363,364,-1,340,364,182,-1,182,364,365,-1,366,367,368,-1,368,367,349,-1,368,349,369,-1,369,349,344,-1,365,370,182,-1,182,370,371,-1,182,371,179,-1,371,372,179,-1,179,372,373,-1,179,373,374,-1,374,375,179,-1,179,375,376,-1,179,376,351,-1,351,376,377,-1,351,377,355,-1,378,303,379,-1,379,303,305,-1,379,305,380,-1,380,305,339,-1,381,300,382,-1,382,300,304,-1,295,300,383,-1,383,300,381,-1,296,295,384,-1,384,295,383,-1,297,296,336,-1,336,296,384,-1,382,304,378,-1,378,304,303,-1,302,301,292,-1,292,301,291,-1,301,299,291,-1,291,299,294,-1,302,292,306,-1,306,292,293,-1,385,386,387,-1,279,281,388,-1,385,387,167,-1,167,387,389,-1,167,389,174,-1,388,390,279,-1,279,390,391,-1,279,391,167,-1,167,391,392,-1,167,392,385,-1,390,393,391,-1,391,393,394,-1,391,394,386,-1,386,394,395,-1,386,395,387,-1,396,174,397,-1,397,174,389,-1,397,389,398,-1,398,389,399,-1,398,399,400,-1,400,399,401,-1,402,334,403,-1,403,334,335,-1,403,335,404,-1,404,335,174,-1,404,174,405,-1,405,174,396,-1,405,396,406,-1,406,396,407,-1,396,408,407,-1,407,408,409,-1,407,409,404,-1,404,409,410,-1,404,410,403,-1,288,290,277,-1,275,283,273,-1,273,283,285,-1,277,279,288,-1,288,279,167,-1,288,167,285,-1,285,167,133,-1,285,133,273,-1,411,412,133,-1,413,271,412,-1,412,271,273,-1,412,273,133,-1,414,415,100,-1,414,100,416,-1,417,418,419,-1,419,416,417,-1,417,416,100,-1,417,100,420,-1,420,100,379,-1,420,379,421,-1,421,379,380,-1,422,423,133,-1,133,423,424,-1,133,424,425,-1,426,427,428,-1,428,427,411,-1,428,411,429,-1,429,411,133,-1,429,133,430,-1,430,133,425,-1,415,431,100,-1,100,431,432,-1,100,432,433,-1,434,435,436,-1,437,438,439,-1,440,441,100,-1,100,441,442,-1,100,442,133,-1,133,442,443,-1,133,443,422,-1,440,100,434,-1,434,100,444,-1,434,444,435,-1,436,445,434,-1,434,445,446,-1,434,446,447,-1,447,446,437,-1,447,437,448,-1,448,437,439,-1,433,449,100,-1,100,449,450,-1,100,450,444,-1,383,381,100,-1,382,378,381,-1,381,378,379,-1,381,379,100,-1,336,384,335,-1,335,384,383,-1,335,383,174,-1,174,383,100,-1,312,389,324,-1,324,389,387,-1,324,387,325,-1,325,387,395,-1,325,395,327,-1,327,395,394,-1,327,394,329,-1,329,394,393,-1,329,393,330,-1,330,393,390,-1,330,390,331,-1,331,390,388,-1,331,388,282,-1,282,388,281,-1,307,334,308,-1,308,334,402,-1,308,402,315,-1,315,402,403,-1,315,403,318,-1,318,403,410,-1,318,410,319,-1,319,410,409,-1,319,409,321,-1,321,409,408,-1,321,408,323,-1,323,408,396,-1,323,396,314,-1,314,396,397,-1,314,397,313,-1,313,397,398,-1,313,398,311,-1,311,398,400,-1,311,400,309,-1,309,400,401,-1,309,401,310,-1,310,401,399,-1,310,399,312,-1,312,399,389,-1,328,391,326,-1,326,391,386,-1,326,386,333,-1,333,386,385,-1,333,385,332,-1,332,385,392,-1,332,392,328,-1,328,392,391,-1,320,407,316,-1,316,407,404,-1,316,404,317,-1,317,404,405,-1,317,405,322,-1,322,405,406,-1,322,406,320,-1,320,406,407,-1,368,416,366,-1,366,416,419,-1,366,419,367,-1,367,419,418,-1,367,418,349,-1,349,418,417,-1,349,417,337,-1,337,417,420,-1,337,420,338,-1,338,420,421,-1,338,421,339,-1,339,421,380,-1,342,272,413,-1,413,272,271,-1,341,342,412,-1,412,342,413,-1,340,341,411,-1,411,341,412,-1,345,340,427,-1,427,340,411,-1,346,345,426,-1,426,345,427,-1,363,346,428,-1,428,346,426,-1,422,373,372,-1,422,372,423,-1,423,372,371,-1,423,371,424,-1,424,371,370,-1,424,370,425,-1,425,370,365,-1,425,365,430,-1,430,365,364,-1,430,364,429,-1,429,364,363,-1,429,363,428,-1,374,373,443,-1,443,373,422,-1,448,357,356,-1,448,356,447,-1,447,356,355,-1,447,355,434,-1,434,355,377,-1,434,377,440,-1,440,377,376,-1,440,376,441,-1,441,376,375,-1,441,375,442,-1,442,375,374,-1,442,374,443,-1,358,357,439,-1,439,357,448,-1,351,358,438,-1,438,358,439,-1,351,438,352,-1,352,438,437,-1,450,348,347,-1,450,347,444,-1,444,347,350,-1,444,350,435,-1,435,350,362,-1,435,362,436,-1,436,362,354,-1,436,354,445,-1,445,354,353,-1,445,353,446,-1,446,353,352,-1,446,352,437,-1,348,450,359,-1,359,450,449,-1,416,368,369,-1,416,369,414,-1,414,369,344,-1,414,344,415,-1,415,344,343,-1,415,343,431,-1,431,343,361,-1,431,361,432,-1,432,361,360,-1,432,360,433,-1,433,360,359,-1,433,359,449,-1,270,268,257,-1,257,268,262,-1,260,259,53,-1,53,259,92,-1,
        ]
    }
}
Shape{
    appearance Appearance {
        material  Material 	{
            diffuseColor 0.6470588235294118 0.6196078431372549 0.5882352941176471
            specularColor 0.45098039215686275 0.43529411764705883 0.4117647058823529
            ambientIntensity 0.2
            transparency 0
            shininess 0.5
        }
    }
    geometry IndexedFaceSet {
        ccw TRUE
        solid FALSE
        coord DEF co Coordinate {
            point [
                1.8898 0.3346 -1.1811, 1.8898 0.4528 -1.1811, 2.0079 0.3346 -1.1811, 2.0079 0.4528 -1.1811, 2.0472 0.4921 -1.0236, 2.0472 0.4921 0.0433, 2.0472 0.2953 -1.0236, 2.0472 0.2953 0.0433, 1.8504 0.2953 -1.0236, 1.8504 0.2953 0.0433, 1.8504 0.4921 -1.0236, 1.8504 0.4921 0.0433, 1.8898 0.4528 2.0866, 1.8898 0.3346 2.0866, 2.0079 0.4528 2.0866, 2.0079 0.3346 2.0866, 1.8504 0.2953 1.9291, 1.8504 0.2953 0.1969, 2.0472 0.2953 1.9291, 2.0472 0.2953 0.1969, 2.0472 0.4921 1.9291, 2.0472 0.4921 0.1969, 1.8504 0.4921 1.9291, 1.8504 0.4921 0.1969, 1.8898 -0.4528 -1.1811, 1.8898 -0.3346 -1.1811, 2.0079 -0.4528 -1.1811, 2.0079 -0.3346 -1.1811, 2.0472 -0.2953 -1.0236, 2.0472 -0.2953 0.0433, 2.0472 -0.4921 -1.0236, 2.0472 -0.4921 0.0433, 1.8504 -0.4921 -1.0236, 1.8504 -0.4921 0.0433, 1.8504 -0.2953 -1.0236, 1.8504 -0.2953 0.0433, 1.8504 -0.4921 1.9291, 1.8504 -0.4921 0.1969, 2.0472 -0.4921 1.9291, 2.0472 -0.4921 0.1969, 2.0472 -0.2953 1.9291, 2.0472 -0.2953 0.1969, 1.8504 -0.2953 1.9291, 1.8504 -0.2953 0.1969, 1.8898 -0.3346 2.0866, 1.8898 -0.4528 2.0866, 2.0079 -0.3346 2.0866, 2.0079 -0.4528 2.0866, 2.0079 -0.4528 2.0866
            ]
        }
        coordIndex [
            0,1,2,-1,2,1,3,-1,4,5,6,-1,6,5,7,-1,8,9,10,-1,10,9,11,-1,10,11,4,-1,4,11,5,-1,6,7,8,-1,8,7,9,-1,12,13,14,-1,14,13,15,-1,16,17,18,-1,18,17,19,-1,20,21,22,-1,22,21,23,-1,18,19,20,-1,20,19,21,-1,22,23,16,-1,16,23,17,-1,24,25,26,-1,26,25,27,-1,28,29,30,-1,30,29,31,-1,32,33,34,-1,34,33,35,-1,34,35,28,-1,28,35,29,-1,30,31,32,-1,32,31,33,-1,36,37,38,-1,38,37,39,-1,40,41,42,-1,42,41,43,-1,44,45,46,-1,46,45,47,-1,38,39,40,-1,40,39,41,-1,42,43,36,-1,36,43,37,-1,4,3,10,-1,10,3,1,-1,6,2,4,-1,4,2,3,-1,0,8,1,-1,1,8,10,-1,8,0,6,-1,6,0,2,-1,28,27,34,-1,34,27,25,-1,30,26,28,-1,28,26,27,-1,24,32,25,-1,25,32,34,-1,32,24,30,-1,30,24,26,-1,38,47,36,-1,36,47,45,-1,40,46,38,-1,38,46,47,-1,44,42,45,-1,45,42,36,-1,42,44,40,-1,40,44,46,-1,18,15,16,-1,16,15,13,-1,20,14,18,-1,18,14,15,-1,12,22,13,-1,13,22,16,-1,22,12,20,-1,20,12,14,-1,
        ]
    }
}
Shape{
    appearance Appearance {
        material  Material 	{
            diffuseColor 0.8431372549019608 0.8156862745098039 0.7529411764705882
            specularColor 0.4235294117647059 0.40784313725490196 0.3764705882352941
            ambientIntensity 0.2
            transparency 0
            shininess 0.5
        }
    }
    geometry IndexedFaceSet {
        ccw TRUE
        solid FALSE
        coord DEF co Coordinate {
            point [
                0.9646 -0.9843 0.0, 0.9646 0.9843 0.0, 0.9646 -0.9843 0.0433, 0.9646 0.9843 0.0433, 1.3583 -0.9843 0.0433, 1.3583 0.9843 0.0433, 1.3583 -0.9843 0.0, 1.3583 0.9843 0.0, 0.1772 -0.9843 0.0, 0.1772 0.9843 0.0, 0.1772 -0.9843 0.0433, 0.1772 0.9843 0.0433, 0.5709 -0.9843 0.0433, 0.5709 0.9843 0.0433, 0.5709 -0.9843 0.0, 0.5709 0.9843 0.0, -0.6102 -0.9843 0.0, -0.6102 0.9843 0.0, -0.6102 -0.9843 0.0433, -0.6102 0.9843 0.0433, -0.2165 -0.9843 0.0433, -0.2165 0.9843 0.0433, -0.2165 -0.9843 0.0, -0.2165 0.9843 0.0, -1.3976 -0.9843 0.0, -1.3976 0.9843 0.0, -1.3976 -0.9843 0.0433, -1.3976 0.9843 0.0433, -1.0039 -0.9843 0.0433, -1.0039 0.9843 0.0433, -1.0039 -0.9843 0.0, -1.0039 0.9843 0.0, -2.185 -0.9843 0.0, -2.185 0.9843 0.0, -2.185 -0.9843 0.0433, -2.185 0.9843 0.0433, -1.7913 -0.9843 0.0433, -1.7913 0.9843 0.0433, -1.7913 -0.9843 0.0, -1.7913 0.9843 0.0, -1.7913 0.9843 0.0
            ]
        }
        coordIndex [
            0,1,2,-1,2,1,3,-1,4,5,6,-1,6,5,7,-1,8,9,10,-1,10,9,11,-1,12,13,14,-1,14,13,15,-1,16,17,18,-1,18,17,19,-1,20,21,22,-1,22,21,23,-1,24,25,26,-1,26,25,27,-1,28,29,30,-1,30,29,31,-1,32,33,34,-1,34,33,35,-1,36,37,38,-1,38,37,39,-1,
        ]
    }
}
Shape{
    appearance Appearance {
        material  Material 	{
            diffuseColor 0.6470588235294118 0.6196078431372549 0.5882352941176471
            specularColor 0.45098039215686275 0.43529411764705883 0.4117647058823529
            ambientIntensity 0.2
            transparency 0
            shininess 0.5
        }
    }
    geometry IndexedFaceSet {
        ccw TRUE
        solid FALSE
        coord DEF co Coordinate {
            point [
                1.1024 0.3346 -1.1811, 1.1024 0.4528 -1.1811, 1.2205 0.3346 -1.1811, 1.2205 0.4528 -1.1811, 1.2598 0.4921 -1.0236, 1.2598 0.4921 0.0433, 1.2598 0.2953 -1.0236, 1.2598 0.2953 0.0433, 1.063 0.2953 -1.0236, 1.063 0.2953 0.0433, 1.063 0.4921 -1.0236, 1.063 0.4921 0.0433, 1.1024 0.4528 2.0866, 1.1024 0.3346 2.0866, 1.2205 0.4528 2.0866, 1.2205 0.3346 2.0866, 1.063 0.2953 1.9291, 1.063 0.2953 0.1969, 1.2598 0.2953 1.9291, 1.2598 0.2953 0.1969, 1.2598 0.4921 1.9291, 1.2598 0.4921 0.1969, 1.063 0.4921 1.9291, 1.063 0.4921 0.1969, 1.1024 -0.4528 -1.1811, 1.1024 -0.3346 -1.1811, 1.2205 -0.4528 -1.1811, 1.2205 -0.3346 -1.1811, 1.2598 -0.2953 -1.0236, 1.2598 -0.2953 0.0433, 1.2598 -0.4921 -1.0236, 1.2598 -0.4921 0.0433, 1.063 -0.4921 -1.0236, 1.063 -0.4921 0.0433, 1.063 -0.2953 -1.0236, 1.063 -0.2953 0.0433, 1.063 -0.4921 1.9291, 1.063 -0.4921 0.1969, 1.2598 -0.4921 1.9291, 1.2598 -0.4921 0.1969, 1.2598 -0.2953 1.9291, 1.2598 -0.2953 0.1969, 1.063 -0.2953 1.9291, 1.063 -0.2953 0.1969, 1.1024 -0.3346 2.0866, 1.1024 -0.4528 2.0866, 1.2205 -0.3346 2.0866, 1.2205 -0.4528 2.0866, 0.315 0.3346 -1.1811, 0.315 0.4528 -1.1811, 0.4331 0.3346 -1.1811, 0.4331 0.4528 -1.1811, 0.4724 0.4921 -1.0236, 0.4724 0.4921 0.0433, 0.4724 0.2953 -1.0236, 0.4724 0.2953 0.0433, 0.2756 0.2953 -1.0236, 0.2756 0.2953 0.0433, 0.2756 0.4921 -1.0236, 0.2756 0.4921 0.0433, 0.315 0.4528 2.0866, 0.315 0.3346 2.0866, 0.4331 0.4528 2.0866, 0.4331 0.3346 2.0866, 0.2756 0.2953 1.9291, 0.2756 0.2953 0.1969, 0.4724 0.2953 1.9291, 0.4724 0.2953 0.1969, 0.4724 0.4921 1.9291, 0.4724 0.4921 0.1969, 0.2756 0.4921 1.9291, 0.2756 0.4921 0.1969, 0.315 -0.4528 -1.1811, 0.315 -0.3346 -1.1811, 0.4331 -0.4528 -1.1811, 0.4331 -0.3346 -1.1811, 0.4724 -0.2953 -1.0236, 0.4724 -0.2953 0.0433, 0.4724 -0.4921 -1.0236, 0.4724 -0.4921 0.0433, 0.2756 -0.4921 -1.0236, 0.2756 -0.4921 0.0433, 0.2756 -0.2953 -1.0236, 0.2756 -0.2953 0.0433, 0.2756 -0.4921 1.9291, 0.2756 -0.4921 0.1969, 0.4724 -0.4921 1.9291, 0.4724 -0.4921 0.1969, 0.4724 -0.2953 1.9291, 0.4724 -0.2953 0.1969, 0.2756 -0.2953 1.9291, 0.2756 -0.2953 0.1969, 0.315 -0.3346 2.0866, 0.315 -0.4528 2.0866, 0.4331 -0.3346 2.0866, 0.4331 -0.4528 2.0866, -0.4724 0.3346 -1.1811, -0.4724 0.4528 -1.1811, -0.3543 0.3346 -1.1811, -0.3543 0.4528 -1.1811, -0.315 0.4921 -1.0236, -0.315 0.4921 0.0433, -0.315 0.2953 -1.0236, -0.315 0.2953 0.0433, -0.5118 0.2953 -1.0236, -0.5118 0.2953 0.0433, -0.5118 0.4921 -1.0236, -0.5118 0.4921 0.0433, -0.4724 0.4528 2.0866, -0.4724 0.3346 2.0866, -0.3543 0.4528 2.0866, -0.3543 0.3346 2.0866, -0.5118 0.2953 1.9291, -0.5118 0.2953 0.1969, -0.315 0.2953 1.9291, -0.315 0.2953 0.1969, -0.315 0.4921 1.9291, -0.315 0.4921 0.1969, -0.5118 0.4921 1.9291, -0.5118 0.4921 0.1969, -0.4724 -0.4528 -1.1811, -0.4724 -0.3346 -1.1811, -0.3543 -0.4528 -1.1811, -0.3543 -0.3346 -1.1811, -0.315 -0.2953 -1.0236, -0.315 -0.2953 0.0433, -0.315 -0.4921 -1.0236, -0.315 -0.4921 0.0433, -0.5118 -0.4921 -1.0236, -0.5118 -0.4921 0.0433, -0.5118 -0.2953 -1.0236, -0.5118 -0.2953 0.0433, -0.5118 -0.4921 1.9291, -0.5118 -0.4921 0.1969, -0.315 -0.4921 1.9291, -0.315 -0.4921 0.1969, -0.315 -0.2953 1.9291, -0.315 -0.2953 0.1969, -0.5118 -0.2953 1.9291, -0.5118 -0.2953 0.1969, -0.4724 -0.3346 2.0866, -0.4724 -0.4528 2.0866, -0.3543 -0.3346 2.0866, -0.3543 -0.4528 2.0866, -1.2598 0.3346 -1.1811, -1.2598 0.4528 -1.1811, -1.1417 0.3346 -1.1811, -1.1417 0.4528 -1.1811, -1.1024 0.4921 -1.0236, -1.1024 0.4921 0.0433, -1.1024 0.2953 -1.0236, -1.1024 0.2953 0.0433, -1.2992 0.2953 -1.0236, -1.2992 0.2953 0.0433, -1.2992 0.4921 -1.0236, -1.2992 0.4921 0.0433, -1.2598 0.4528 2.0866, -1.2598 0.3346 2.0866, -1.1417 0.4528 2.0866, -1.1417 0.3346 2.0866, -1.2992 0.2953 1.9291, -1.2992 0.2953 0.1969, -1.1024 0.2953 1.9291, -1.1024 0.2953 0.1969, -1.1024 0.4921 1.9291, -1.1024 0.4921 0.1969, -1.2992 0.4921 1.9291, -1.2992 0.4921 0.1969, -1.2598 -0.4528 -1.1811, -1.2598 -0.3346 -1.1811, -1.1417 -0.4528 -1.1811, -1.1417 -0.3346 -1.1811, -1.1024 -0.2953 -1.0236, -1.1024 -0.2953 0.0433, -1.1024 -0.4921 -1.0236, -1.1024 -0.4921 0.0433, -1.2992 -0.4921 -1.0236, -1.2992 -0.4921 0.0433, -1.2992 -0.2953 -1.0236, -1.2992 -0.2953 0.0433, -1.2992 -0.4921 1.9291, -1.2992 -0.4921 0.1969, -1.1024 -0.4921 1.9291, -1.1024 -0.4921 0.1969, -1.1024 -0.2953 1.9291, -1.1024 -0.2953 0.1969, -1.2992 -0.2953 1.9291, -1.2992 -0.2953 0.1969, -1.2598 -0.3346 2.0866, -1.2598 -0.4528 2.0866, -1.1417 -0.3346 2.0866, -1.1417 -0.4528 2.0866, -2.0472 0.3346 -1.1811, -2.0472 0.4528 -1.1811, -1.9291 0.3346 -1.1811, -1.9291 0.4528 -1.1811, -1.8898 0.4921 -1.0236, -1.8898 0.4921 0.0433, -1.8898 0.2953 -1.0236, -1.8898 0.2953 0.0433, -2.0866 0.2953 -1.0236, -2.0866 0.2953 0.0433, -2.0866 0.4921 -1.0236, -2.0866 0.4921 0.0433, -2.0472 0.4528 2.0866, -2.0472 0.3346 2.0866, -1.9291 0.4528 2.0866, -1.9291 0.3346 2.0866, -2.0866 0.2953 1.9291, -2.0866 0.2953 0.1969, -1.8898 0.2953 1.9291, -1.8898 0.2953 0.1969, -1.8898 0.4921 1.9291, -1.8898 0.4921 0.1969, -2.0866 0.4921 1.9291, -2.0866 0.4921 0.1969, -2.0472 -0.4528 -1.1811, -2.0472 -0.3346 -1.1811, -1.9291 -0.4528 -1.1811, -1.9291 -0.3346 -1.1811, -1.8898 -0.2953 -1.0236, -1.8898 -0.2953 0.0433, -1.8898 -0.4921 -1.0236, -1.8898 -0.4921 0.0433, -2.0866 -0.4921 -1.0236, -2.0866 -0.4921 0.0433, -2.0866 -0.2953 -1.0236, -2.0866 -0.2953 0.0433, -2.0866 -0.4921 1.9291, -2.0866 -0.4921 0.1969, -1.8898 -0.4921 1.9291, -1.8898 -0.4921 0.1969, -1.8898 -0.2953 1.9291, -1.8898 -0.2953 0.1969, -2.0866 -0.2953 1.9291, -2.0866 -0.2953 0.1969, -2.0472 -0.3346 2.0866, -2.0472 -0.4528 2.0866, -1.9291 -0.3346 2.0866, -1.9291 -0.4528 2.0866, -1.9291 -0.4528 2.0866
            ]
        }
        coordIndex [
            0,1,2,-1,2,1,3,-1,4,5,6,-1,6,5,7,-1,8,9,10,-1,10,9,11,-1,10,11,4,-1,4,11,5,-1,6,7,8,-1,8,7,9,-1,12,13,14,-1,14,13,15,-1,16,17,18,-1,18,17,19,-1,20,21,22,-1,22,21,23,-1,18,19,20,-1,20,19,21,-1,22,23,16,-1,16,23,17,-1,24,25,26,-1,26,25,27,-1,28,29,30,-1,30,29,31,-1,32,33,34,-1,34,33,35,-1,34,35,28,-1,28,35,29,-1,30,31,32,-1,32,31,33,-1,36,37,38,-1,38,37,39,-1,40,41,42,-1,42,41,43,-1,44,45,46,-1,46,45,47,-1,38,39,40,-1,40,39,41,-1,42,43,36,-1,36,43,37,-1,48,49,50,-1,50,49,51,-1,52,53,54,-1,54,53,55,-1,56,57,58,-1,58,57,59,-1,58,59,52,-1,52,59,53,-1,54,55,56,-1,56,55,57,-1,60,61,62,-1,62,61,63,-1,64,65,66,-1,66,65,67,-1,68,69,70,-1,70,69,71,-1,66,67,68,-1,68,67,69,-1,70,71,64,-1,64,71,65,-1,72,73,74,-1,74,73,75,-1,76,77,78,-1,78,77,79,-1,80,81,82,-1,82,81,83,-1,82,83,76,-1,76,83,77,-1,78,79,80,-1,80,79,81,-1,84,85,86,-1,86,85,87,-1,88,89,90,-1,90,89,91,-1,92,93,94,-1,94,93,95,-1,86,87,88,-1,88,87,89,-1,90,91,84,-1,84,91,85,-1,96,97,98,-1,98,97,99,-1,100,101,102,-1,102,101,103,-1,104,105,106,-1,106,105,107,-1,106,107,100,-1,100,107,101,-1,102,103,104,-1,104,103,105,-1,108,109,110,-1,110,109,111,-1,112,113,114,-1,114,113,115,-1,116,117,118,-1,118,117,119,-1,114,115,116,-1,116,115,117,-1,118,119,112,-1,112,119,113,-1,120,121,122,-1,122,121,123,-1,124,125,126,-1,126,125,127,-1,128,129,130,-1,130,129,131,-1,130,131,124,-1,124,131,125,-1,126,127,128,-1,128,127,129,-1,132,133,134,-1,134,133,135,-1,136,137,138,-1,138,137,139,-1,140,141,142,-1,142,141,143,-1,134,135,136,-1,136,135,137,-1,138,139,132,-1,132,139,133,-1,144,145,146,-1,146,145,147,-1,148,149,150,-1,150,149,151,-1,152,153,154,-1,154,153,155,-1,154,155,148,-1,148,155,149,-1,150,151,152,-1,152,151,153,-1,156,157,158,-1,158,157,159,-1,160,161,162,-1,162,161,163,-1,164,165,166,-1,166,165,167,-1,162,163,164,-1,164,163,165,-1,166,167,160,-1,160,167,161,-1,168,169,170,-1,170,169,171,-1,172,173,174,-1,174,173,175,-1,176,177,178,-1,178,177,179,-1,178,179,172,-1,172,179,173,-1,174,175,176,-1,176,175,177,-1,180,181,182,-1,182,181,183,-1,184,185,186,-1,186,185,187,-1,188,189,190,-1,190,189,191,-1,182,183,184,-1,184,183,185,-1,186,187,180,-1,180,187,181,-1,192,193,194,-1,194,193,195,-1,196,197,198,-1,198,197,199,-1,200,201,202,-1,202,201,203,-1,202,203,196,-1,196,203,197,-1,198,199,200,-1,200,199,201,-1,204,205,206,-1,206,205,207,-1,208,209,210,-1,210,209,211,-1,212,213,214,-1,214,213,215,-1,210,211,212,-1,212,211,213,-1,214,215,208,-1,208,215,209,-1,216,217,218,-1,218,217,219,-1,220,221,222,-1,222,221,223,-1,224,225,226,-1,226,225,227,-1,226,227,220,-1,220,227,221,-1,222,223,224,-1,224,223,225,-1,228,229,230,-1,230,229,231,-1,232,233,234,-1,234,233,235,-1,236,237,238,-1,238,237,239,-1,230,231,232,-1,232,231,233,-1,234,235,228,-1,228,235,229,-1,4,3,10,-1,10,3,1,-1,6,2,4,-1,4,2,3,-1,0,8,1,-1,1,8,10,-1,8,0,6,-1,6,0,2,-1,28,27,34,-1,34,27,25,-1,30,26,28,-1,28,26,27,-1,24,32,25,-1,25,32,34,-1,32,24,30,-1,30,24,26,-1,38,47,36,-1,36,47,45,-1,40,46,38,-1,38,46,47,-1,44,42,45,-1,45,42,36,-1,42,44,40,-1,40,44,46,-1,18,15,16,-1,16,15,13,-1,20,14,18,-1,18,14,15,-1,12,22,13,-1,13,22,16,-1,22,12,20,-1,20,12,14,-1,52,51,58,-1,58,51,49,-1,54,50,52,-1,52,50,51,-1,48,56,49,-1,49,56,58,-1,56,48,54,-1,54,48,50,-1,76,75,82,-1,82,75,73,-1,78,74,76,-1,76,74,75,-1,72,80,73,-1,73,80,82,-1,80,72,78,-1,78,72,74,-1,86,95,84,-1,84,95,93,-1,88,94,86,-1,86,94,95,-1,92,90,93,-1,93,90,84,-1,90,92,88,-1,88,92,94,-1,66,63,64,-1,64,63,61,-1,68,62,66,-1,66,62,63,-1,60,70,61,-1,61,70,64,-1,70,60,68,-1,68,60,62,-1,100,99,106,-1,106,99,97,-1,102,98,100,-1,100,98,99,-1,96,104,97,-1,97,104,106,-1,104,96,102,-1,102,96,98,-1,124,123,130,-1,130,123,121,-1,126,122,124,-1,124,122,123,-1,120,128,121,-1,121,128,130,-1,128,120,126,-1,126,120,122,-1,134,143,132,-1,132,143,141,-1,136,142,134,-1,134,142,143,-1,140,138,141,-1,141,138,132,-1,138,140,136,-1,136,140,142,-1,114,111,112,-1,112,111,109,-1,116,110,114,-1,114,110,111,-1,108,118,109,-1,109,118,112,-1,118,108,116,-1,116,108,110,-1,148,147,154,-1,154,147,145,-1,150,146,148,-1,148,146,147,-1,144,152,145,-1,145,152,154,-1,152,144,150,-1,150,144,146,-1,172,171,178,-1,178,171,169,-1,174,170,172,-1,172,170,171,-1,168,176,169,-1,169,176,178,-1,176,168,174,-1,174,168,170,-1,182,191,180,-1,180,191,189,-1,184,190,182,-1,182,190,191,-1,188,186,189,-1,189,186,180,-1,186,188,184,-1,184,188,190,-1,162,159,160,-1,160,159,157,-1,164,158,162,-1,162,158,159,-1,156,166,157,-1,157,166,160,-1,166,156,164,-1,164,156,158,-1,196,195,202,-1,202,195,193,-1,198,194,196,-1,196,194,195,-1,192,200,193,-1,193,200,202,-1,200,192,198,-1,198,192,194,-1,220,219,226,-1,226,219,217,-1,222,218,220,-1,220,218,219,-1,216,224,217,-1,217,224,226,-1,224,216,222,-1,222,216,218,-1,230,239,228,-1,228,239,237,-1,232,238,230,-1,230,238,239,-1,236,234,237,-1,237,234,228,-1,234,236,232,-1,232,236,238,-1,210,207,208,-1,208,207,205,-1,212,206,210,-1,210,206,207,-1,204,214,205,-1,205,214,208,-1,214,204,212,-1,212,204,206,-1,
        ]
    }
}
Shape{
    appearance Appearance {
        material  Material 	{
            diffuseColor 1.0 1.0 1.0
            specularColor 0.8784313725490196 0.8784313725490196 0.8784313725490196
            ambientIntensity 0.2
            transparency 0
            shininess 0.5
        }
    }
    geometry IndexedFaceSet {
        ccw TRUE
        solid FALSE
        coord DEF co Coordinate {
            point [
                2.2854 -0.3813 0.0394, 2.2638 -0.3813 0.0394, 2.2854 -0.3813 0.0, 2.2638 -0.3813 0.0, 2.2638 -0.4821 0.0394, 2.2638 -0.4821 0.0, 2.4606 -0.4821 0.0394, 2.4606 -0.4821 0.0, 2.4606 -0.4557 0.0394, 2.4606 -0.4557 0.0, 2.2854 -0.4557 0.0394, 2.2854 -0.4557 0.0, 2.2956 -0.2181 0.0394, 2.274 -0.2181 0.0394, 2.2956 -0.2181 0.0, 2.274 -0.2181 0.0, 2.2654 -0.2391 0.0394, 2.2614 -0.2722 0.0394, 2.2614 -0.2722 0.0, 2.2615 -0.2669 0.0, 2.2615 -0.2669 0.0394, 2.2626 -0.2589 0.0, 2.2654 -0.2391 0.0, 2.2626 -0.2838 0.0, 2.2639 -0.2965 0.0394, 2.2639 -0.2965 0.0, 2.2705 -0.3157 0.0394, 2.2705 -0.3157 0.0, 2.2808 -0.3317 0.0394, 2.2808 -0.3317 0.0, 2.2965 -0.3464 0.0394, 2.2965 -0.3464 0.0, 2.3153 -0.3568 0.0394, 2.3153 -0.3568 0.0, 2.3361 -0.3627 0.0394, 2.3361 -0.3627 0.0, 2.3585 -0.3645 0.0394, 2.3585 -0.3645 0.0, 2.463 -0.2644 0.0394, 2.463 -0.2644 0.0, 2.4612 -0.2855 0.0, 2.4612 -0.2855 0.0394, 2.4546 -0.3071 0.0, 2.4546 -0.3071 0.0394, 2.4438 -0.3255 0.0, 2.4438 -0.3255 0.0394, 2.4272 -0.3426 0.0, 2.4272 -0.3426 0.0394, 2.4088 -0.3541 0.0, 2.4088 -0.3541 0.0394, 2.3864 -0.3617 0.0, 2.3864 -0.3617 0.0394, 2.4552 -0.2181 0.0394, 2.4552 -0.2181 0.0, 2.4614 -0.2408 0.0, 2.4614 -0.2408 0.0394, 2.4288 -0.2181 0.0394, 2.4288 -0.2181 0.0, 2.4414 -0.2642 0.0394, 2.4414 -0.2642 0.0, 2.4383 -0.2402 0.0, 2.4383 -0.2402 0.0394, 2.3601 -0.3381 0.0394, 2.3601 -0.3381 0.0, 2.3749 -0.3372 0.0, 2.3749 -0.3372 0.0394, 2.3962 -0.332 0.0, 2.3962 -0.332 0.0394, 2.4114 -0.324 0.0, 2.4114 -0.324 0.0394, 2.4246 -0.3122 0.0, 2.4246 -0.3122 0.0394, 2.434 -0.2982 0.0, 2.434 -0.2982 0.0394, 2.4393 -0.2836 0.0, 2.4393 -0.2836 0.0394, 2.283 -0.2686 0.0394, 2.283 -0.2686 0.0, 2.285 -0.2869 0.0, 2.285 -0.2869 0.0394, 2.2903 -0.3013 0.0, 2.2903 -0.3013 0.0394, 2.2985 -0.3134 0.0, 2.2985 -0.3134 0.0394, 2.3082 -0.3226 0.0, 2.3082 -0.3226 0.0394, 2.3219 -0.3308 0.0, 2.3219 -0.3308 0.0394, 2.3388 -0.3361 0.0, 2.3388 -0.3361 0.0394, 2.2936 -0.2216 0.0, 2.2936 -0.2216 0.0394, 2.2859 -0.2425 0.0, 2.2859 -0.2425 0.0394, 2.2854 -0.074 0.0394, 2.2638 -0.074 0.0394, 2.2854 -0.074 0.0, 2.2638 -0.074 0.0, 2.2638 -0.1797 0.0394, 2.2638 -0.1797 0.0, 2.4606 -0.1797 0.0394, 2.4606 -0.1797 0.0, 2.4606 -0.0788 0.0394, 2.4606 -0.0788 0.0, 2.439 -0.0788 0.0394, 2.439 -0.0788 0.0, 2.439 -0.1533 0.0394, 2.439 -0.1533 0.0, 2.3742 -0.1533 0.0394, 2.3742 -0.1533 0.0, 2.3742 -0.0836 0.0394, 2.3742 -0.0836 0.0, 2.3526 -0.0836 0.0394, 2.3526 -0.0836 0.0, 2.3526 -0.1533 0.0394, 2.3526 -0.1533 0.0, 2.2854 -0.1533 0.0394, 2.2854 -0.1533 0.0, 2.2638 0.0179 0.0394, 2.2638 -0.0356 0.0394, 2.2638 0.0179 0.0, 2.2638 -0.0356 0.0, 2.4606 -0.0356 0.0394, 2.4606 -0.0356 0.0, 2.4606 0.0199 0.0394, 2.4606 0.0199 0.0, 2.3647 0.1228 0.0394, 2.3647 0.1228 0.0, 2.3743 0.1224 0.0, 2.3743 0.1224 0.0394, 2.3948 0.1188 0.0, 2.3948 0.1188 0.0394, 2.414 0.1105 0.0, 2.414 0.1105 0.0394, 2.4297 0.0986 0.0, 2.4297 0.0986 0.0394, 2.4368 0.0909 0.0, 2.4368 0.0909 0.0394, 2.4495 0.0714 0.0, 2.4495 0.0714 0.0394, 2.4576 0.0484 0.0, 2.4576 0.0484 0.0394, 2.2659 0.0423 0.0, 2.2659 0.0423 0.0394, 2.2727 0.0649 0.0, 2.2727 0.0649 0.0394, 2.2846 0.0855 0.0, 2.2846 0.0855 0.0394, 2.3001 0.1017 0.0, 2.3001 0.1017 0.0394, 2.3177 0.113 0.0, 2.3177 0.113 0.0394, 2.3383 0.1201 0.0, 2.3383 0.1201 0.0394, 2.3641 0.0964 0.0394, 2.3837 0.0947 0.0394, 2.3993 0.0901 0.0394, 2.4113 0.0834 0.0394, 2.4215 0.0738 0.0394, 2.4308 0.0595 0.0394, 2.4365 0.0432 0.0394, 2.439 0.0198 0.0394, 2.439 -0.0092 0.0394, 2.2854 -0.0092 0.0394, 2.2854 0.0187 0.0394, 2.2873 0.0395 0.0394, 2.2925 0.0561 0.0394, 2.3003 0.0693 0.0394, 2.3112 0.0803 0.0394, 2.3248 0.0888 0.0394, 2.3402 0.0939 0.0394, 2.439 0.0198 0.0, 2.439 -0.0092 0.0, 2.4365 0.0432 -0.0, 2.4308 0.0595 -0.0, 2.4215 0.0738 -0.0, 2.4113 0.0834 0.0, 2.3993 0.0901 0.0, 2.3837 0.0947 -0.0, 2.3641 0.0964 0.0, 2.3402 0.0939 0.0, 2.3248 0.0888 0.0, 2.3112 0.0803 0.0, 2.3003 0.0693 0.0, 2.2925 0.0561 0.0, 2.2873 0.0395 0.0, 2.2854 0.0187 0.0, 2.2854 -0.0092 0.0, 2.2854 -0.0092 0.0
            ]
        }
        coordIndex [
            0,1,2,-1,2,1,3,-1,1,4,3,-1,3,4,5,-1,4,6,5,-1,5,6,7,-1,6,8,7,-1,7,8,9,-1,8,10,9,-1,9,10,11,-1,10,0,11,-1,11,0,2,-1,8,6,10,-1,10,6,4,-1,10,4,0,-1,0,4,1,-1,12,13,14,-1,14,13,15,-1,15,13,16,-1,17,18,19,-1,17,19,20,-1,20,19,21,-1,20,21,16,-1,16,21,22,-1,16,22,15,-1,18,17,23,-1,23,17,24,-1,23,24,25,-1,25,24,26,-1,25,26,27,-1,27,26,28,-1,27,28,29,-1,29,28,30,-1,29,30,31,-1,31,30,32,-1,31,32,33,-1,33,32,34,-1,33,34,35,-1,35,34,36,-1,35,36,37,-1,38,39,40,-1,38,40,41,-1,41,40,42,-1,41,42,43,-1,43,42,44,-1,43,44,45,-1,45,44,46,-1,45,46,47,-1,47,46,48,-1,47,48,49,-1,49,48,50,-1,49,50,51,-1,51,50,37,-1,51,37,36,-1,52,53,54,-1,52,54,55,-1,55,54,39,-1,55,39,38,-1,52,56,53,-1,53,56,57,-1,58,59,60,-1,58,60,61,-1,61,60,57,-1,61,57,56,-1,62,63,64,-1,62,64,65,-1,65,64,66,-1,65,66,67,-1,67,66,68,-1,67,68,69,-1,69,68,70,-1,69,70,71,-1,71,70,72,-1,71,72,73,-1,73,72,74,-1,73,74,75,-1,75,74,59,-1,75,59,58,-1,76,77,78,-1,76,78,79,-1,79,78,80,-1,79,80,81,-1,81,80,82,-1,81,82,83,-1,83,82,84,-1,83,84,85,-1,85,84,86,-1,85,86,87,-1,87,86,88,-1,87,88,89,-1,89,88,63,-1,89,63,62,-1,12,14,90,-1,12,90,91,-1,91,90,92,-1,91,92,93,-1,93,92,77,-1,93,77,76,-1,79,17,76,-1,76,17,20,-1,76,20,93,-1,93,20,16,-1,93,16,91,-1,91,16,13,-1,91,13,12,-1,56,52,61,-1,61,52,55,-1,61,55,58,-1,58,55,38,-1,58,38,75,-1,75,38,41,-1,75,41,73,-1,73,41,43,-1,73,43,71,-1,71,43,45,-1,71,45,69,-1,69,45,47,-1,69,47,67,-1,67,47,49,-1,67,49,65,-1,65,49,51,-1,65,51,62,-1,62,51,36,-1,62,36,89,-1,89,36,34,-1,89,34,87,-1,87,34,32,-1,87,32,85,-1,85,32,30,-1,85,30,83,-1,83,30,28,-1,83,28,81,-1,81,28,26,-1,81,26,79,-1,79,26,24,-1,79,24,17,-1,94,95,96,-1,96,95,97,-1,95,98,97,-1,97,98,99,-1,98,100,99,-1,99,100,101,-1,100,102,101,-1,101,102,103,-1,102,104,103,-1,103,104,105,-1,104,106,105,-1,105,106,107,-1,106,108,107,-1,107,108,109,-1,108,110,109,-1,109,110,111,-1,110,112,111,-1,111,112,113,-1,112,114,113,-1,113,114,115,-1,114,116,115,-1,115,116,117,-1,116,94,117,-1,117,94,96,-1,98,95,94,-1,94,116,98,-1,98,116,114,-1,98,114,100,-1,104,102,106,-1,106,102,100,-1,106,100,108,-1,108,100,114,-1,108,114,110,-1,110,114,112,-1,118,119,120,-1,120,119,121,-1,119,122,121,-1,121,122,123,-1,122,124,123,-1,123,124,125,-1,126,127,128,-1,126,128,129,-1,129,128,130,-1,129,130,131,-1,131,130,132,-1,131,132,133,-1,133,132,134,-1,133,134,135,-1,135,134,136,-1,135,136,137,-1,137,136,138,-1,137,138,139,-1,139,138,140,-1,139,140,141,-1,141,140,125,-1,141,125,124,-1,118,120,142,-1,118,142,143,-1,143,142,144,-1,143,144,145,-1,145,144,146,-1,145,146,147,-1,147,146,148,-1,147,148,149,-1,149,148,150,-1,149,150,151,-1,151,150,152,-1,151,152,153,-1,153,152,127,-1,153,127,126,-1,153,126,154,-1,154,126,129,-1,154,129,155,-1,155,129,131,-1,155,131,156,-1,156,131,133,-1,156,133,157,-1,157,133,135,-1,157,135,158,-1,158,135,137,-1,158,137,159,-1,159,137,139,-1,159,139,160,-1,160,139,141,-1,160,141,161,-1,161,141,124,-1,161,124,162,-1,162,124,122,-1,162,122,163,-1,163,122,119,-1,163,119,164,-1,164,119,118,-1,164,118,165,-1,165,118,143,-1,165,143,166,-1,166,143,145,-1,166,145,167,-1,167,145,147,-1,167,147,168,-1,168,147,149,-1,168,149,169,-1,169,149,151,-1,169,151,170,-1,170,151,153,-1,170,153,154,-1,161,162,171,-1,171,162,172,-1,161,171,173,-1,161,173,160,-1,160,173,174,-1,160,174,159,-1,159,174,175,-1,159,175,158,-1,158,175,176,-1,158,176,157,-1,157,176,177,-1,157,177,156,-1,156,177,178,-1,156,178,155,-1,155,178,179,-1,155,179,154,-1,154,179,180,-1,154,180,170,-1,170,180,181,-1,170,181,169,-1,169,181,182,-1,169,182,168,-1,168,182,183,-1,168,183,167,-1,167,183,184,-1,167,184,166,-1,166,184,185,-1,166,185,165,-1,165,185,186,-1,165,186,164,-1,163,164,187,-1,187,164,186,-1,162,163,172,-1,172,163,187,-1,
        ]
    }
}
Shape{
    appearance Appearance {
        material  Material 	{
            diffuseColor 0.8431372549019608 0.8156862745098039 0.7529411764705882
            specularColor 0.4235294117647059 0.40784313725490196 0.3764705882352941
            ambientIntensity 0.2
            transparency 0
            shininess 0.5
        }
    }
    geometry IndexedFaceSet {
        ccw TRUE
        solid FALSE
        coord DEF co Coordinate {
            point [
                2.439 0.0198 0.0, 2.439 -0.0092 0.0, 2.2854 -0.0092 0.0, 2.3402 0.0939 0.0, 2.3641 0.0964 0.0, 2.3248 0.0888 0.0, 2.3837 0.0947 -0.0, 2.3993 0.0901 0.0, 2.4365 0.0432 -0.0, 2.2854 0.0187 0.0, 2.2873 0.0395 0.0, 2.2925 0.0561 0.0, 2.4113 0.0834 0.0, 2.4215 0.0738 -0.0, 2.4308 0.0595 -0.0, 2.3003 0.0693 0.0, 2.3112 0.0803 0.0, 2.3112 0.0803 0.0
            ]
        }
        coordIndex [
            0,1,2,-1,3,4,0,-1,3,0,5,-1,4,6,0,-1,0,6,7,-1,0,7,8,-1,2,9,0,-1,0,9,10,-1,0,10,11,-1,12,13,7,-1,7,13,14,-1,7,14,8,-1,11,15,0,-1,0,15,16,-1,0,16,5,-1,
        ]
    }
}
Shape{
    appearance Appearance {
        material  Material 	{
            diffuseColor 1.0 1.0 1.0
            specularColor 0.8784313725490196 0.8784313725490196 0.8784313725490196
            ambientIntensity 0.2
            transparency 0
            shininess 0.5
        }
    }
    geometry IndexedFaceSet {
        ccw TRUE
        solid FALSE
        coord DEF co Coordinate {
            point [
                2.4606 0.238 0.0394, 2.2638 0.3149 0.0394, 2.4606 0.238 0.0, 2.2638 0.3149 0.0, 2.2638 0.2861 0.0394, 2.2638 0.2861 0.0, 2.319 0.2661 0.0394, 2.319 0.2661 0.0, 2.319 0.1848 0.0394, 2.319 0.1848 0.0, 2.2638 0.166 0.0394, 2.2638 0.166 0.0, 2.2638 0.1372 0.0394, 2.2638 0.1372 0.0, 2.4606 0.2116 0.0394, 2.4606 0.2116 0.0, 2.3406 0.1915 0.0394, 2.4228 0.2208 0.0394, 2.4296 0.2227 0.0394, 2.4366 0.224 0.0394, 2.4366 0.2246 0.0394, 2.4297 0.2259 0.0394, 2.3406 0.2573 0.0394, 2.4228 0.2277 0.0394, 2.3406 0.1915 0.0, 2.3406 0.2573 0.0, 2.4228 0.2208 -0.0, 2.4296 0.2227 -0.0, 2.4366 0.224 0.0, 2.4366 0.2246 0.0, 2.4297 0.2259 0.0, 2.4228 0.2277 0.0, 2.4228 0.2277 0.0
            ]
        }
        coordIndex [
            0,1,2,-1,2,1,3,-1,1,4,3,-1,3,4,5,-1,4,6,5,-1,5,6,7,-1,6,8,7,-1,7,8,9,-1,8,10,9,-1,9,10,11,-1,10,12,11,-1,11,12,13,-1,12,14,13,-1,13,14,15,-1,14,0,15,-1,15,0,2,-1,16,17,14,-1,12,10,8,-1,17,18,14,-1,14,18,19,-1,14,19,0,-1,0,19,20,-1,0,20,21,-1,14,12,16,-1,16,12,8,-1,16,8,22,-1,22,8,6,-1,21,23,0,-1,0,23,22,-1,0,22,1,-1,1,22,6,-1,1,6,4,-1,16,22,24,-1,24,22,25,-1,17,16,26,-1,26,16,24,-1,17,26,27,-1,17,27,18,-1,18,27,28,-1,18,28,19,-1,20,19,29,-1,29,19,28,-1,20,29,30,-1,20,30,21,-1,21,30,31,-1,21,31,23,-1,22,23,25,-1,25,23,31,-1,
        ]
    }
}
Shape{
    appearance Appearance {
        material  Material 	{
            diffuseColor 0.8431372549019608 0.8156862745098039 0.7529411764705882
            specularColor 0.4235294117647059 0.40784313725490196 0.3764705882352941
            ambientIntensity 0.2
            transparency 0
            shininess 0.5
        }
    }
    geometry IndexedFaceSet {
        ccw TRUE
        solid FALSE
        coord DEF co Coordinate {
            point [
                2.3406 0.1915 0.0, 2.3406 0.2573 0.0, 2.4228 0.2208 -0.0, 2.4228 0.2277 0.0, 2.4296 0.2227 -0.0, 2.4297 0.2259 0.0, 2.4366 0.224 0.0, 2.4366 0.2246 0.0, 2.4366 0.2246 0.0
            ]
        }
        coordIndex [
            0,1,2,-1,2,1,3,-1,2,3,4,-1,4,3,5,-1,4,5,6,-1,6,5,7,-1,
        ]
    }
}